<svg id="1348769727" enable-background="new 0 0 512 512" height="512" viewBox="0 0 512 512" width="512" xmlns="http://www.w3.org/2000/svg" class="svg u_1348769727" data-icon-custom="true" data-icon-name="wine-glass (1).svg" alt="paint and sip"> <path d="m290.093 318.174c1.687-.883 3.135-2.037 4.353-3.363 65.258-17.971 113.554-80.563 113.554-154.811 0-50.021-31.48-145.039-32.821-149.06-2.178-6.533-8.292-10.94-15.179-10.94h-208c-6.887 0-13.001 4.407-15.179 10.94-1.341 4.021-32.821 99.039-32.821 149.06 0 74.248 48.296 136.84 113.554 154.81 1.218 1.327 2.666 2.48 4.353 3.363 11.16 5.846 18.093 17.305 18.093 29.907v99.92c0 17.645-14.355 32-32 32h-32c-8.837 0-16 7.164-16 16s7.163 16 16 16h160c8.837 0 16-7.164 16-16s-7.163-16-16-16h-32c-17.645 0-32-14.355-32-32v-99.92c0-12.602 6.933-24.061 18.093-29.906zm-154.093-158.174c0-35.67 19.535-101.925 27.681-128h184.641c8.146 26.068 27.678 92.296 27.678 128 0 70.58-53.832 128-120 128s-120-57.42-120-128z"></path>
</svg>