<svg width="52" height="73" viewBox="0 0 52 73" fill="none" xmlns="http://www.w3.org/2000/svg">
<path d="M1 43.0338L15.209 50.9326L29.418 43.0338L15.209 35L1 43.0338Z" stroke="#5C7F61" stroke-opacity="0.36" stroke-width="0.75"/>
<path d="M29.418 59.0335L15.209 66.9999V50.9322" stroke="#5C7F61" stroke-opacity="0.36" stroke-width="0.75"/>
<path d="M29.4422 59.1373V43.0696" stroke="#5C7F61" stroke-opacity="0.36" stroke-width="0.75"/>
<path d="M15.209 67L1 59.0337V43.0335" stroke="#5C7F61" stroke-opacity="0.36" stroke-width="0.75"/>
<path d="M30.7762 33.9334C33.0162 33.9334 34.6362 33.5134 35.6362 32.6734C36.6762 31.7934 37.1962 30.7134 37.1962 29.4334V29.0134C37.1962 27.4934 36.6962 26.2734 35.6962 25.3534C34.7362 24.4334 33.3562 23.9734 31.5562 23.9734C29.8762 23.9734 28.2962 24.4134 26.8162 25.2934C25.3362 26.1334 24.0762 27.3534 23.0362 28.9534L17.3962 23.6734C18.1962 22.6334 19.0562 21.6934 19.9762 20.8534C20.8962 19.9734 21.9362 19.2334 23.0962 18.6334C24.2562 17.9934 25.5562 17.5134 26.9962 17.1934C28.4362 16.8334 30.0562 16.6534 31.8562 16.6534C34.0962 16.6534 36.1162 16.9134 37.9162 17.4334C39.7562 17.9534 41.3162 18.7134 42.5962 19.7134C43.9162 20.6734 44.9162 21.8334 45.5962 23.1934C46.3162 24.5534 46.6762 26.0734 46.6762 27.7534C46.6762 29.0734 46.4562 30.2734 46.0162 31.3534C45.6162 32.4334 45.0362 33.3734 44.2762 34.1734C43.5562 34.9734 42.7162 35.6334 41.7562 36.1534C40.7962 36.6334 39.7762 36.9734 38.6962 37.1734V37.5334C39.9362 37.7734 41.0762 38.1734 42.1162 38.7334C43.1962 39.2534 44.1162 39.9334 44.8762 40.7734C45.6762 41.6134 46.2962 42.6134 46.7362 43.7734C47.1762 44.8934 47.3962 46.1734 47.3962 47.6134C47.3962 49.4934 47.0162 51.1934 46.2562 52.7134C45.4962 54.2334 44.4162 55.5334 43.0162 56.6134C41.6162 57.6934 39.9362 58.5334 37.9762 59.1334C36.0162 59.6934 33.8562 59.9734 31.4962 59.9734C29.3762 59.9734 27.4962 59.7534 25.8562 59.3134C24.2162 58.8734 22.7762 58.2934 21.5362 57.5734C20.3362 56.8134 19.2762 55.9534 18.3562 54.9934C17.4762 54.0334 16.6962 53.0134 16.0162 51.9334L22.6762 46.7734C23.5962 48.4934 24.7162 49.9134 26.0362 51.0334C27.3962 52.1134 29.2162 52.6534 31.4962 52.6534C33.5362 52.6534 35.1162 52.1534 36.2362 51.1534C37.3962 50.1134 37.9762 48.7134 37.9762 46.9534V46.5934C37.9762 44.8734 37.3162 43.5934 35.9962 42.7534C34.7162 41.8734 32.9362 41.4334 30.6562 41.4334H26.8762V33.9334H30.7762Z" fill="url(#paint0_linear)"/>
<defs>
<linearGradient id="paint0_linear" x1="33.0562" y1="17.2534" x2="33.0562" y2="59.2534" gradientUnits="userSpaceOnUse">
<stop stop-color="#5C7F61"/>
<stop offset="1" stop-color="#CEE4D1"/>
</linearGradient>
</defs>
</svg>
