<svg width="52" height="73" viewBox="0 0 52 73" fill="none" xmlns="http://www.w3.org/2000/svg">
<path d="M1 43.0338L15.209 50.9326L29.418 43.0338L15.209 35L1 43.0338Z" stroke="#565190" stroke-opacity="0.36" stroke-width="0.75"/>
<path d="M29.418 59.0336L15.209 66.9999V50.9322" stroke="#565190" stroke-opacity="0.36" stroke-width="0.75"/>
<path d="M29.4422 59.1372V43.0696" stroke="#565190" stroke-opacity="0.36" stroke-width="0.75"/>
<path d="M15.209 67L1 59.0337V43.0335" stroke="#565190" stroke-opacity="0.36" stroke-width="0.75"/>
<path d="M48.1162 59.2534H18.4762V51.0334L31.3762 39.9934C32.5362 38.9934 33.5162 38.0934 34.3162 37.2934C35.1162 36.4534 35.7562 35.6534 36.2362 34.8934C36.7562 34.0934 37.1162 33.3134 37.3162 32.5534C37.5562 31.7934 37.6762 30.9734 37.6762 30.0934V29.2534C37.6762 28.4534 37.5162 27.7534 37.1962 27.1534C36.8762 26.5534 36.4562 26.0534 35.9362 25.6534C35.4162 25.2534 34.8162 24.9534 34.1362 24.7534C33.4962 24.5534 32.8362 24.4534 32.1562 24.4534C31.1562 24.4534 30.2762 24.6134 29.5162 24.9334C28.7962 25.2534 28.1562 25.6934 27.5962 26.2534C27.0762 26.7734 26.6362 27.3934 26.2762 28.1134C25.9162 28.7934 25.6362 29.5334 25.4362 30.3334L17.5762 27.3334C18.0562 25.8934 18.7162 24.5334 19.5562 23.2534C20.3962 21.9334 21.4362 20.7934 22.6762 19.8334C23.9562 18.8334 25.4562 18.0534 27.1762 17.4934C28.8962 16.9334 30.8362 16.6534 32.9962 16.6534C35.2762 16.6534 37.2962 16.9734 39.0562 17.6134C40.8162 18.2534 42.2962 19.1334 43.4962 20.2534C44.7362 21.3734 45.6762 22.7134 46.3162 24.2734C46.9562 25.7934 47.2762 27.4534 47.2762 29.2534C47.2762 31.0534 46.9762 32.6934 46.3762 34.1734C45.7762 35.6534 44.9562 37.0534 43.9162 38.3734C42.9162 39.6534 41.7362 40.8734 40.3762 42.0334C39.0162 43.1934 37.5962 44.3734 36.1162 45.5734L28.3162 51.6934H48.1162V59.2534Z" fill="url(#paint0_linear)"/>
<defs>
<linearGradient id="paint0_linear" x1="33.0562" y1="17.2534" x2="33.0562" y2="59.2534" gradientUnits="userSpaceOnUse">
<stop stop-color="#565190"/>
<stop offset="1" stop-color="#7FACD9"/>
</linearGradient>
</defs>
</svg>
