<svg width="118" height="108" viewBox="0 0 118 108" fill="none" xmlns="http://www.w3.org/2000/svg">
<path d="M52.5 53.0775L84.4728 70.8511L116.446 53.0775L84.4728 35L52.5 53.0775Z" stroke="#565190" stroke-width="0.75"/>
<path d="M116.445 89.0797L84.4727 107.005V70.8503" stroke="#565190" stroke-width="0.75"/>
<path d="M116.5 89.313V53.158" stroke="#565190" stroke-width="0.75"/>
<path d="M84.4728 107.006L52.5 89.0799V53.0767" stroke="#565190" stroke-width="0.75"/>
<path d="M33.56 59H3.92V50.78L16.82 39.74C17.98 38.74 18.96 37.84 19.76 37.04C20.56 36.2 21.2 35.4 21.68 34.64C22.2 33.84 22.56 33.06 22.76 32.3C23 31.54 23.12 30.72 23.12 29.84V29C23.12 28.2 22.96 27.5 22.64 26.9C22.32 26.3 21.9 25.8 21.38 25.4C20.86 25 20.26 24.7 19.58 24.5C18.94 24.3 18.28 24.2 17.6 24.2C16.6 24.2 15.72 24.36 14.96 24.68C14.24 25 13.6 25.44 13.04 26C12.52 26.52 12.08 27.14 11.72 27.86C11.36 28.54 11.08 29.28 10.88 30.08L3.02 27.08C3.5 25.64 4.16 24.28 5 23C5.84 21.68 6.88 20.54 8.12 19.58C9.4 18.58 10.9 17.8 12.62 17.24C14.34 16.68 16.28 16.4 18.44 16.4C20.72 16.4 22.74 16.72 24.5 17.36C26.26 18 27.74 18.88 28.94 20C30.18 21.12 31.12 22.46 31.76 24.02C32.4 25.54 32.72 27.2 32.72 29C32.72 30.8 32.42 32.44 31.82 33.92C31.22 35.4 30.4 36.8 29.36 38.12C28.36 39.4 27.18 40.62 25.82 41.78C24.46 42.94 23.04 44.12 21.56 45.32L13.76 51.44H33.56V59Z" fill="url(#paint0_linear)"/>
<defs>
<linearGradient id="paint0_linear" x1="18.5" y1="17" x2="18.5" y2="59" gradientUnits="userSpaceOnUse">
<stop stop-color="#565190"/>
<stop offset="1" stop-color="#7FACD9"/>
</linearGradient>
</defs>
</svg>
